<svg xmlns="http://www.w3.org/2000/svg" version="1.1" xmlns:xlink="http://www.w3.org/1999/xlink" xmlns:svgjs="http://svgjs.dev/svgjs" width="1500" height="1500" viewBox="0 0 1500 1500"><rect width="1500" height="1500" fill="#001f3f"></rect><g transform="matrix(0.6666666666666666,0,0,0.6666666666666666,248.44244080996884,189.33333333333348)"><svg viewBox="0 0 321 360" data-background-color="#001f3f" preserveAspectRatio="xMidYMid meet" height="1682" width="1500" xmlns="http://www.w3.org/2000/svg" xmlns:xlink="http://www.w3.org/1999/xlink"><g id="tight-bounds" transform="matrix(1,0,0,1,0.5000234999999975,0)"><svg viewBox="0 0 320 360" height="360" width="320"><g><svg></svg></g><g><svg viewBox="0 0 320 360" height="360" width="320"><g><path transform="translate(-74.99272,-51.79039) scale(4.65793,4.65793)" d="M20.6 59.9l0.8 1-0.4-1.3c-0.1-0.6-0.8 0.1-0.4 0.3M21.5 59.3c0.3 0.5 0.6 1 0.6 1.5 0 0.7 0.6 1 1.1 1.2-0.7-0.8-1.1-3-1.7-2.7M59.9 16.9c1.7 0 3.3-0.2 5.1 0.2 4.4 1.1 8.1 3.3 10.6 6.4l7 11.2c0.3 2.8 0.9 5.9 0.8 9.3 0.7 0 0.6-1 1.4-1.2-0.8 2-1.2 4.5-1.4 7.4-0.5-1.6 0-4 0.1-5.3-0.7 1.1-1.1 0.3-1.1-0.2 0.1-0.8-0.3-0.7-0.6-1-1.1-1-1.8-2.1-2.6-3.8 0.5-1.3 0.6-3.2-1-4.2-0.5-0.3-1.1-0.8-1.4-1.6-0.4-1.1-1.1-2.4-0.9-4.1 0.1-0.5-1.5 1.1-2.4 0.4-3.9-2.7-7.8-5.8-12.5-8.4-2.5 0-4.3-0.9-5.2-2-0.8-1-0.2-2.3 1-2.4 0.7 0 1.5-0.2 2.1 0.2 0.1-0.4 0.5-0.9 1-0.9M50 14.6l0.2 0.1c1 0.2 1.5 1.6 2.6 1.1 0 0.7 0.1 1.4-0.1 1.9-0.3 0.8-1.2 0.8-1.9 0.8-6.7-0.4-10.6 2.4-14.7 4.8-1.1 0.7-2.3 1.2-3.2 2.1-4.3 4-9 7.7-10.1 15.1l-0.9 8.2c-0.1 0.9-1.1 1.8-0.9 2.9l0.7 4.9c-0.7-0.7-1.1 0.2-0.9 0.6 0.1 0.3 0.5 1.3 1.1 0.4 0.8 1.5 1.6 4.4 2.7 5.7 3.4 4 7.8 7.6 11.4 11.2 0.9-0.2 1.6-0.2 1.8-0.8 0.3 0.6-0.3 1.2-0.8 1.3 1.6 1 3.4 1.9 5.8 2.1 3.1 0.2 6 0.7 8.7 1.4 1.4-0.4 2.8-0.6 4.3-0.7 0.5 0 0.8-0.8 1.4-1l0.1-1c0.6 0.9 0.5-0.3 0.1-0.9 0.7 0.6 0.9 1.1 1.2 1.5 0-0.3 0.8-1.4 0.8-0.1l0.2-1.3c0.3-0.2 0.4 1.1 0.7 0.2 0.3-0.9 0.9-0.2 1.5-0.5-0.2 0.4-0.1 1.2 0.6 0.7l0.8-0.7c0.5 1.2 1.3 0.7 1.7 0.5 4.4-2.8 8.8-6.1 13-9.4l-0.1 1.3 0.5-1.6c0.5 0.5 0.9 0.1 1.1-0.2 0.6-1 1.4-2 2.7-2.9-1.6 4.3-3.5 7.7-5.9 10.5l-1 1.2c0 0.7-0.2 1.6-1 1.7-0.4 0.1-1.2-0.2-1.8 0.4-0.3 0.4 0.7 1.2-0.1 0.6-0.7-0.5-1.4 0-2.2 0.2-0.6 0.2 0.4 0.8 0.6 1.2 0.2 0.4 0.4 0.8 0.3 1.3l-1.1-1.2c-1.3 0.7-2.1 2-3.2 3-0.5 0.4-0.3 1.1-0.3 1.7-0.7 0-1.5-0.2-1.9 0.2-0.3 0.4-0.2 1-0.2 1.6-1-0.1-1.1-1.6-2-1.3-0.9 0.2-1.9 0.3-2.7 0.8 0.6 1.2-1 0.5-0.8 0.7-1.5-0.9-2.8-1.6-4.4-1-3.4-1.1-7.6-0.6-10.7-0.2 0-0.5 0.1-1-0.1-1.1-0.2 0.5-0.8 0.3-0.7 0.3-1.9-1.3-3.8-2.1-5.8-3.2-1.8 0.2-3.5-0.7-4-1.2-1.4-1.3-3-0.6-4.3-0.9-2.8-0.7-3.8-3.6-4.1-5.6-0.2-1-1-1.4-1.3-1.3-1.3-4.2-3.3-8-4.9-11.9-0.4-1-0.3-2-0.3-3.1 0.5 0.2 1 0.1 0.9-0.6-0.5-3.3-1.7-5.8-3-8.2 0.7-3.4 0.8-7.4 2.4-10.4 1.4-2.7 4-4.1 5.8-6.4 0.6-0.8 0.6-1.9 1.2-2.6 2-2 4-4.1 6.2-5.9 1-0.8 2.2 0 3.7-0.3 0.5-1.8 2.5-3.4 4.4-2.9 0.8 0.2 2.4-1.9 2.9-2.1 0.8-0.3 0.4 0.8 0.4 1.5 1.9-1.5 4.5-2.3 6.9-3.2" fill="#ffffff" fill-rule="nonzero" stroke="none" stroke-width="1" stroke-linecap="butt" stroke-linejoin="miter" stroke-miterlimit="10" stroke-dasharray="" stroke-dashoffset="0" font-family="none" font-weight="none" font-size="none" text-anchor="none" style="mix-blend-mode: normal" data-fill-palette-color="tertiary"></path></g><g transform="matrix(1,0,0,1,64,159.30215937247783)"><svg viewBox="0 0 192 41.39568125504434" height="41.39568125504434" width="192"><g><svg viewBox="0 0 269.46137344015887 58.09654752851712" height="41.39568125504434" width="192"><g transform="matrix(1,0,0,1,77.46137344015885,8.029262357414453)"><svg viewBox="0 0 192 42.038022813688215" height="42.038022813688215" width="192"><g id="textblocktransform"><svg viewBox="0 0 192 42.038022813688215" height="42.038022813688215" width="192" id="textblock"><g><svg viewBox="0 0 192 42.038022813688215" height="42.038022813688215" width="192"><g transform="matrix(1,0,0,1,0,0)"><svg width="192" viewBox="-0.65 -34.1 157.79 34.550000000000004" height="42.038022813688215" data-palette-color="#ffffff"><path d="M5.9 0.3Q5.25 0.3 4.78-0.15 4.3-0.6 4.3-1.15L4.3-1.15 4.3-21.8 0.8-21.8Q0.25-21.8-0.2-22.25-0.65-22.7-0.65-23.3L-0.65-23.3Q-0.65-23.85-0.23-24.3 0.2-24.75 0.7-24.75L0.7-24.75 4.35-24.75Q4.35-28.25 5.4-30.3 6.45-32.35 8.63-33.23 10.8-34.1 14.4-34.1L14.4-34.1Q16.5-34.1 16.5-32.65L16.5-32.65Q16.5-32 16.1-31.55 15.7-31.1 15-31.1L15-31.1Q11.9-31.1 10.38-30.65 8.85-30.2 8.18-28.88 7.5-27.55 7.45-24.75L7.45-24.75 14.05-24.7Q14.55-24.7 15.03-24.28 15.5-23.85 15.5-23.3L15.5-23.3Q15.5-22.7 15.08-22.25 14.65-21.8 14.05-21.8L14.05-21.8 7.45-21.8 7.45-1.15Q7.45-0.6 6.98-0.15 6.5 0.3 5.9 0.3L5.9 0.3ZM24.65 0.45Q21.85 0.45 20.22-0.8 18.6-2.05 17.85-5.05 17.1-8.05 17.1-13.4L17.1-13.4Q17.1-19.15 17.7-22.85L17.7-22.85Q17.85-23.85 18.22-24.28 18.6-24.7 19.3-24.7L19.3-24.7Q19.9-24.7 20.32-24.3 20.75-23.9 20.75-23.2L20.75-23.2Q20.75-22.45 20.6-21.25L20.6-21.25Q20.15-17.65 20.15-12.2L20.15-12.2Q20.15-6.95 21.2-4.65 22.25-2.35 24.7-2.35L24.7-2.35Q26.95-2.35 29.22-3.53 31.5-4.7 32.45-5.8L32.45-5.8Q33.05-6.5 33.05-8.05L33.05-8.05 33.25-23.3Q33.25-23.9 33.7-24.3 34.15-24.7 34.75-24.7L34.75-24.7Q35.35-24.7 35.8-24.3 36.25-23.9 36.25-23.3L36.25-23.3 36.25-1.25Q36.25-0.65 35.75-0.18 35.25 0.3 34.6 0.3L34.6 0.3Q33.8 0.3 33.32-0.2 32.85-0.7 32.85-1.45L32.85-1.45 32.85-3.35Q31.75-1.9 29.47-0.73 27.2 0.45 24.65 0.45L24.65 0.45ZM45 0.3Q44.35 0.3 43.87-0.15 43.4-0.6 43.4-1.2L43.4-1.2 43.4-23.1Q43.4-23.7 43.87-24.18 44.35-24.65 45-24.65L45-24.65Q45.65-24.65 46.1-24.18 46.55-23.7 46.55-23.1L46.55-23.1 46.55-17.35Q48.2-20.6 50.82-22.63 53.45-24.65 56-24.65L56-24.65Q58.15-24.65 59.87-23.38 61.6-22.1 62.25-19L62.25-19Q64.05-21.9 66.3-23.28 68.55-24.65 70.75-24.65L70.75-24.65Q73.8-24.65 75.62-22.4 77.45-20.15 77.45-15.4L77.45-15.4 77.45-1.2Q77.45-0.6 76.97-0.15 76.5 0.3 75.84 0.3L75.84 0.3Q75.2 0.3 74.75-0.15 74.3-0.6 74.3-1.2L74.3-1.2 74.3-15.75Q74.3-18.85 73.3-20.28 72.3-21.7 70.34-21.7L70.34-21.7Q68.84-21.7 67.02-20.55 65.2-19.4 63.9-17.3 62.6-15.2 62.6-12.5L62.6-12.5 62.6-1.2Q62.6-0.6 62.15-0.15 61.7 0.3 61.05 0.3L61.05 0.3Q60.4 0.3 59.92-0.15 59.45-0.6 59.45-1.2L59.45-1.2 59.45-15.75Q59.45-18.9 58.55-20.3 57.65-21.7 55.6-21.7L55.6-21.7Q53.9-21.7 52.1-20.28 50.3-18.85 48.8-16.8L48.8-16.8Q47.45-14.9 47-13.25 46.55-11.6 46.55-8.65L46.55-8.65 46.55-1.2Q46.55-0.6 46.1-0.15 45.65 0.3 45 0.3L45 0.3ZM95.59 0.3Q91.94 0.3 89.09-1.33 86.24-2.95 84.69-5.7 83.14-8.45 83.14-11.7L83.14-11.7Q83.14-15.1 84.57-18.07 85.99-21.05 88.54-22.85 91.09-24.65 94.39-24.65L94.39-24.65Q97.39-24.65 99.52-23.5 101.64-22.35 102.72-20.75 103.79-19.15 103.79-17.9L103.79-17.9Q103.79-17 102.59-16.3L102.59-16.3 87.09-7.45Q88.34-5.05 90.49-3.83 92.64-2.6 95.54-2.6L95.54-2.6Q97.14-2.6 98.92-3.4 100.69-4.2 101.74-5.3L101.74-5.3Q102.09-5.8 102.74-5.8L102.74-5.8Q103.39-5.8 103.82-5.38 104.24-4.95 104.24-4.3L104.24-4.3Q104.24-3.8 103.84-3.3L103.84-3.3Q102.49-1.75 100.17-0.73 97.84 0.3 95.59 0.3L95.59 0.3ZM100.69-18.3Q99.99-20 98.49-20.85 96.99-21.7 94.44-21.7L94.44-21.7Q92.04-21.7 90.14-20.38 88.24-19.05 87.17-16.8 86.09-14.55 86.04-11.85L86.04-11.85Q86.04-10.85 86.14-10.25L86.14-10.25 100.69-18.3ZM112.64 0.35Q111.99 0.35 111.52-0.1 111.04-0.55 111.04-1.15L111.04-1.15 111.04-21.55 105.49-21.55Q104.84-21.55 104.39-22.03 103.94-22.5 103.94-23.15L103.94-23.15Q103.94-23.85 104.44-24.28 104.94-24.7 105.59-24.7L105.59-24.7 111.04-24.7 111.04-31.55Q111.04-32.2 111.52-32.68 111.99-33.15 112.64-33.15L112.64-33.15Q113.34-33.15 113.77-32.68 114.19-32.2 114.19-31.55L114.19-31.55 114.19-24.7 119.79-24.7Q120.49-24.7 120.94-24.25 121.39-23.8 121.39-23.15L121.39-23.15Q121.39-22.5 120.92-22.03 120.44-21.55 119.79-21.55L119.79-21.55 114.19-21.55 114.19-1.15Q114.19-0.55 113.72-0.1 113.24 0.35 112.64 0.35L112.64 0.35ZM126.94 0.35Q126.29 0.35 125.81-0.1 125.34-0.55 125.34-1.15L125.34-1.15 125.34-21.55 119.79-21.55Q119.14-21.55 118.69-22.03 118.24-22.5 118.24-23.15L118.24-23.15Q118.24-23.85 118.74-24.28 119.24-24.7 119.89-24.7L119.89-24.7 125.34-24.7 125.34-31.55Q125.34-32.2 125.81-32.68 126.29-33.15 126.94-33.15L126.94-33.15Q127.64-33.15 128.06-32.68 128.49-32.2 128.49-31.55L128.49-31.55 128.49-24.7 134.09-24.7Q134.79-24.7 135.24-24.25 135.69-23.8 135.69-23.15L135.69-23.15Q135.69-22.5 135.21-22.03 134.74-21.55 134.09-21.55L134.09-21.55 128.49-21.55 128.49-1.15Q128.49-0.55 128.01-0.1 127.54 0.35 126.94 0.35L126.94 0.35ZM145.49 0.3Q142.64 0.3 140.31-1.23 137.99-2.75 136.66-5.38 135.34-8 135.34-11.2L135.34-11.2Q135.34-14.6 136.86-17.7 138.39-20.8 141.09-22.73 143.79-24.65 147.04-24.65L147.04-24.65Q149.84-24.65 152.16-23.13 154.49-21.6 155.81-18.98 157.14-16.35 157.14-13.2L157.14-13.2Q157.14-9.6 155.54-6.5 153.94-3.4 151.26-1.55 148.59 0.3 145.49 0.3L145.49 0.3ZM145.69-2.55Q147.84-2.55 149.74-4 151.64-5.45 152.79-7.85 153.94-10.25 153.94-12.95L153.94-12.95Q153.94-15.3 152.99-17.32 152.04-19.35 150.41-20.58 148.79-21.8 146.79-21.8L146.79-21.8Q144.59-21.8 142.71-20.33 140.84-18.85 139.71-16.43 138.59-14 138.59-11.3L138.59-11.3Q138.59-8.7 139.56-6.73 140.54-4.75 142.19-3.65 143.84-2.55 145.69-2.55L145.69-2.55Z" opacity="1" transform="matrix(1,0,0,1,0,0)" fill="#ffffff" class="wordmark-text-0" data-fill-palette-color="primary" id="text-0"></path></svg></g></svg></g></svg></g></svg></g><g><svg viewBox="0 0 71.32701699909421 58.09654752851712" height="58.09654752851712" width="71.32701699909421"><g><svg xmlns="http://www.w3.org/2000/svg" data-name="open book comic" viewBox="10.634036774627868 18.421287006572644 78.99178989107132 64.33957943071616" x="0" y="0" height="58.09654752851712" width="71.32701699909421" class="icon-icon-0" data-fill-palette-color="accent" id="icon-0"><path d="M86.42 28.16A1.6 1.6 0 0 0 86.13 27.82 1.8 1.8 0 0 0 85.38 26.62 33.22 33.22 0 0 0 64.74 20.47C60.74 20.65 54.1 21.4 50.74 24.61 47.96 21.77 41.19 19.82 38.74 19.25A30.36 30.36 0 0 0 19.05 21.18C16.64 22.34 15.58 23.45 14.93 26 13.8 30.47 13.52 35.35 12.93 39.93 11.75 50.27 11 60.66 10.76 71.07A1.54 1.54 0 0 0 10.76 72.29L13.72 79A1.49 1.49 0 0 0 15.41 79.69C23.24 76.5 30.99 78.69 38.69 81.11A1.53 1.53 0 0 0 40.54 80.11 15 15 0 0 1 42.24 76.59 22 22 0 0 1 43.33 80.36 1.52 1.52 0 0 0 45.84 81.02C49.57 78.02 57.54 79.02 62.02 79.43A72.3 72.3 0 0 1 77.34 82.69 1.34 1.34 0 0 0 78.2 82.69 1.27 1.27 0 0 0 79.2 81.69C81.81 69.88 83.26 57.83 86.51 46.18 87.46 42.78 89.15 39.1 89.59 35.59 89.92 32.68 87.9 30.48 86.42 28.16M68.52 23.54A30.5 30.5 0 0 1 82.52 28.34C78.7 34.34 77.34 41.23 75.91 48.19S72.46 62.19 71.59 69.41C67.1 67.78 62.59 67.96 57.67 67.9A34.4 34.4 0 0 0 43.87 70.31Q47.18 49.19 51.87 28.31A2 2 0 0 0 51.95 28.12C53.44 23.48 64.79 23.23 68.52 23.54M17.52 28.73C18.14 24.89 19.92 23.73 23.75 22.59A27.1 27.1 0 0 1 32.33 21.45 28.4 28.4 0 0 1 42.09 23.45C42.99 23.81 49.02 26.36 48.99 27.18A2 2 0 0 0 48.99 27.35Q44.19 48.72 40.84 70.35C33.54 66.93 20.94 62.86 13.84 67.43A315 315 0 0 1 17.53 28.73ZM38.25 77.82C30.84 75.54 23.31 73.82 15.82 76.35L13.73 71.6C18.8 64.7 34.49 70.53 40.73 73.6A23 23 0 0 0 38.25 77.82M58.67 76.16C54.41 76 49.61 75.66 45.74 77.56A26 26 0 0 0 44.22 73.56C45.41 73.13 46.94 72.74 47.8 72.38A23.6 23.6 0 0 1 57.69 70.86C62.56 70.93 67.3 70.59 71.77 72.66 72.83 74.79 74.32 76.73 75.35 78.87A71.5 71.5 0 0 0 58.67 76.16M85.97 37.16C84.82 41.07 83.65 44.97 82.62 48.92A89 89 0 0 0 80.31 60.4C79.64 65.78 78.49 71.01 77.31 76.27 76.31 74.62 75.31 73.02 74.41 71.27 75.11 63.69 77.29 56.42 78.83 48.98 80.14 42.65 81.35 36.38 84.57 30.8 86 33 86.83 34.22 86 37.13Z" fill="#ffffff" data-fill-palette-color="accent"></path><path d="M19.25 37.3A0.81 0.81 0 0 0 20.19 38.15 25.9 25.9 0 0 1 28.49 38C28.91 38.06 29.49 37.82 29.44 37.28A16.35 16.35 0 0 1 30.6 28.82 0.59 0.59 0 0 0 30.6 28.24 0.69 0.69 0 0 0 30.12 27.29 15.4 15.4 0 0 0 23.62 27C22.62 27.18 20.51 27.38 20.16 28.57A0.7 0.7 0 0 0 19.94 28.91 26.5 26.5 0 0 0 18.94 33.65C18.82 34.72 18.46 36.3 19.17 37.23ZM29.08 28.59A17.1 17.1 0 0 0 27.87 36.43 28.2 28.2 0 0 0 20.53 36.59 1 1 0 0 0 20.47 36.47C19.88 35.7 20.47 33.56 20.58 32.69A26 26 0 0 1 21.39 29.3 0.7 0.7 0 0 0 21.51 29.15C23.51 27.9 26.79 28.11 29.08 28.6Z" fill="#ffffff" data-fill-palette-color="accent"></path><path d="M32 39A56 56 0 0 1 40.06 39.49 0.76 0.76 0 0 0 41.01 38.77C41.07 35.97 42.6 33.48 42.8 30.68A0.74 0.74 0 0 0 42.43 30.03 18.1 18.1 0 0 0 33.23 27.86 0.73 0.73 0 0 0 32.29 28.35C31.29 31.69 30.44 34.98 31.29 38.45A0.76 0.76 0 0 0 32 39M41.2 31.7C41.31 32.78 40.4 34.37 40.09 35.4A13 13 0 0 0 39.58 37.89 58 58 0 0 0 32.65 37.46C32.13 34.68 32.78 31.98 33.58 29.3 35.87 29.28 41 29.56 41.2 31.7" fill="#ffffff" data-fill-palette-color="accent"></path><path d="M17.28 47.87L17.46 48.52A0.69 0.69 0 0 0 17.85 49H18.21C25.15 49 31.93 48.76 38.75 50.2A0.77 0.77 0 0 0 39.67 49.68C40.43 47.26 41.01 44.79 41.78 42.37A0.75 0.75 0 0 0 41.26 41.45C34 40.34 26.83 39.33 19.5 40.09H19.43A0.67 0.67 0 0 0 18.78 40.62C18.21 42.83 17.29 45.02 17.34 47.31A0.7 0.7 0 0 0 17.28 47.87M32.07 41.69C32.85 41.77 39.32 41.96 39.94 43.18 40.14 43.58 39.04 47.18 38.73 47.58 37.51 49.34 33.45 47.69 31.23 47.58 27.12 47.39 22.96 47.52 18.84 47.58 18.67 45.58 19.52 43.51 20.08 41.58A59.4 59.4 0 0 1 32.07 41.69" fill="#ffffff" data-fill-palette-color="accent"></path><path d="M17 60.34A0.76 0.76 0 0 0 17.95 61.06 43.7 43.7 0 0 1 35.88 61.69 0.77 0.77 0 0 0 36.8 61.17C37.47 58.98 38.34 56.78 38.93 54.57 39.14 53.78 39.4 54.02 39.3 53.19A0.79 0.79 0 0 0 38.75 52.47C32.58 50.47 25.02 50.47 18.58 50.85A0.84 0.84 0 0 0 17.4 51.62C17.4 52.73 17.4 53.83 17.3 54.93V56.46C17.15 57.78 17 59 17 60.34M30.81 52.64C31.17 52.64 37.25 53.06 37.65 53.64A22 22 0 0 0 36.78 56.1C35.98 58.68 36.17 59.79 33.28 59.53 31.68 59.39 30.11 59.04 28.5 58.92A44.5 44.5 0 0 0 18.5 59.43C18.5 58.43 18.65 57.43 18.73 56.43V55.19C18.73 54.38 18.83 53.35 18.85 52.34A76 76 0 0 1 30.82 52.63Z" fill="#ffffff" data-fill-palette-color="accent"></path><path d="M53.16 37.08A0.6 0.6 0 0 0 53.47 36.99C56.19 35.99 59.69 36.53 62.56 36.7A49 49 0 0 1 73.27 38.63 0.76 0.76 0 0 0 74.22 37.91 23.1 23.1 0 0 1 76.4 31.7 0.77 0.77 0 0 0 76.13 30.7C69.18 27.18 61.37 26.37 54.13 29.37A0.79 0.79 0 0 0 53.64 30.12Q52.86 33.12 52.35 36.18A0.75 0.75 0 0 0 52.4 36.6 0.6 0.6 0 0 0 53.16 37.08M70.1 29.85C72.75 30.58 74.75 30.79 73.95 33.55 73.59 34.78 73.16 35.79 72.9 36.97A50.7 50.7 0 0 0 62.56 35.19C59.84 35.03 56.71 34.53 54 35.19 54.29 33.63 54.62 32.09 55 30.55A23.83 23.83 0 0 1 70.09 29.84Z" fill="#ffffff" data-fill-palette-color="accent"></path><path d="M55.88 63.44C57.28 55.95 58.88 48.5 60.55 41.07A0.71 0.71 0 0 0 60.39 40.43 0.62 0.62 0 0 0 60 39.9 8.48 8.48 0 0 0 52.26 39.77 0.6 0.6 0 0 0 51.92 40 0.6 0.6 0 0 0 51.78 40.37C50.22 47.52 49.28 54.78 47.78 61.94A0.8 0.8 0 0 0 47.78 62.17C47.56 62.64 47.78 63.29 48.4 63.23A13.2 13.2 0 0 1 51.95 63.41C52.55 63.51 54.1 63.55 54.59 63.99A0.73 0.73 0 0 0 55.16 64.19 0.6 0.6 0 0 0 55.82 63.72S55.82 63.72 55.82 63.66V63.55A0.6 0.6 0 0 0 55.88 63.44M49.36 61.69C50.78 54.82 51.71 47.86 53.2 41A6.84 6.84 0 0 1 59.01 41.08Q56.6 51.68 54.57 62.35C54.03 62.19 53.44 62.15 52.85 62.05A19 19 0 0 0 49.36 61.69" fill="#ffffff" data-fill-palette-color="accent"></path><path d="M69.52 39.93A10.47 10.47 0 0 0 62.97 40.77 0.67 0.67 0 0 0 62.42 41.44C62.04 43.53 61.64 45.62 61.26 47.72V47.8A1 1 0 0 0 61.26 47.92 1 1 0 0 0 61.26 48.08 0.71 0.71 0 0 0 62.03 48.65H62.19A9.45 9.45 0 0 1 67.42 48.65C68.12 48.86 68.95 49.48 69.7 49.14S70.48 47.97 70.7 47.3C71.09 45.89 71.49 44.48 71.87 43.07 72.39 41 71.49 40.34 69.52 39.93M69.34 46.56C68.98 47.85 69.04 47.56 67.84 47.19A10 10 0 0 0 66.4 46.88 10.8 10.8 0 0 0 62.92 46.95C63.22 45.31 63.53 43.67 63.83 42.03A8.9 8.9 0 0 1 66.83 41.25C67.61 41.19 69.13 41.06 69.77 41.54 71.12 42.56 69.69 45.28 69.33 46.56Z" fill="#ffffff" data-fill-palette-color="accent"></path><path d="M65.85 50.92A7 7 0 0 0 60.79 52 0.64 0.64 0 0 0 60.39 52.48C59.55 56.15 58.78 59.85 57.63 63.41S57.63 63.41 57.63 63.46A0.64 0.64 0 0 0 57.97 64.17L58.12 64.24A0.73 0.73 0 0 0 58.53 64.24 17.4 17.4 0 0 1 65.53 64.32 1 1 0 0 0 65.74 64.39 0.68 0.68 0 0 0 66.74 63.93L68.49 56.51C68.76 55.38 69.75 53.29 69.04 52.19 68.48 51.33 66.81 51.07 65.85 50.92M67.18 55.83C66.63 58.19 66.31 60 65.76 63H66V62.82H65.75A20.4 20.4 0 0 0 59.56 62.61C59.87 61.61 60.12 60.61 60.35 59.61 60.84 57.46 61.35 55.31 61.79 53.16A5.6 5.6 0 0 1 65.79 52.49C67.77 52.84 67.58 54.11 67.18 55.83" fill="#ffffff" data-fill-palette-color="accent"></path></svg></g></svg></g></svg></g></svg></g></svg></g><defs></defs></svg><rect width="320" height="360" fill="none" stroke="none" visibility="hidden"></rect></g></svg></g></svg>